<svg width="80" height="80" xmlns="http://www.w3.org/2000/svg" fill="none">
 <g>
  <title>Layer 1</title>
  <path d="m38.1441,15.16161c0.6718,-1.6729 3.04,-1.6729 3.7118,0l5.9522,14.8222c0.2861,0.7124 0.9547,1.1981 1.7207,1.2501l15.936,1.0805c1.7987,0.122 2.5305,2.3744 1.147,3.5302l-12.2574,10.2412c-0.5891,0.4922 -0.8445,1.2782 -0.6572,2.0227l3.8969,15.49c0.4398,1.7483 -1.4762,3.1404 -3.003,2.1818l-13.5277,-8.4928c-0.6502,-0.4082 -1.4766,-0.4082 -2.1268,0l-13.5277,8.4928c-1.5268,0.9586 -3.4428,-0.4335 -3.003,-2.1818l3.8969,-15.49c0.1873,-0.7445 -0.0681,-1.5305 -0.6572,-2.0227l-12.2574,-10.2412c-1.3835,-1.1558 -0.6517,-3.4082 1.147,-3.5302l15.936,-1.0805c0.766,-0.052 1.4346,-0.5377 1.7207,-1.2501l5.9522,-14.8222z" fill="#F2994A" id="svg_1"/>
  <path d="m39.0515,26.3108c0.3359,-0.8364 1.5201,-0.8364 1.856,0l2.976,7.4111c0.1431,0.3562 0.4774,0.5991 0.8604,0.6251l7.968,0.5403c0.8993,0.0609 1.2652,1.1871 0.5735,1.7651l-6.1287,5.1205c-0.2946,0.2462 -0.4223,0.6392 -0.3286,1.0114l1.9484,7.745c0.2199,0.8742 -0.7381,1.5702 -1.5015,1.0909l-6.7638,-4.2464c-0.3251,-0.2041 -0.7383,-0.2041 -1.0634,0l-6.7638,4.2464c-0.7635,0.4793 -1.7214,-0.2167 -1.5015,-1.0909l1.9484,-7.745c0.0936,-0.3722 -0.0341,-0.7652 -0.3286,-1.0114l-6.1287,-5.1205c-0.6918,-0.578 -0.3258,-1.7042 0.5735,-1.7651l7.968,-0.5403c0.383,-0.026 0.7173,-0.2689 0.8603,-0.6251l2.9761,-7.4111z" fill="#F2C94C" id="svg_2"/>
  <path fill="#ff0000" d="m5,39.99994l0,0c0,-18.16268 15.67005,-32.88654 34.99997,-32.88654l0,0c9.2827,0 18.18517,3.46483 24.74874,9.63228c6.56383,6.16745 10.25129,14.53232 10.25129,23.25426l0,0c0,18.1629 -15.66994,32.88666 -35.00003,32.88666l0,0c-19.32992,0 -34.99997,-14.72376 -34.99997,-32.88666l0,0zm56.51703,14.7118l0,0c7.70584,-9.95071 6.56039,-23.69036 -2.70057,-32.392c-9.26096,-8.70171 -23.88355,-9.778 -34.47345,-2.53738l37.17402,34.92938zm-43.03393,-29.4233c-7.7059,9.95066 -6.56047,23.6903 2.70044,32.39182c9.26088,8.70176 23.88347,9.77805 34.47337,2.5375l-37.17381,-34.92932l0,0z" id="svg_4"/>
 </g>

</svg>