<svg width="80" height="80" xmlns="http://www.w3.org/2000/svg" fill="none">
 <g>
  <title>Layer 1</title>
  <path fill-rule="evenodd" clip-rule="evenodd" d="m33.9256,9.69324c-0.7608,0 -1.4802,0.34643 -1.9545,0.94123l-5.321,6.6723l-11.6501,0c-1.3807,0 -2.5,1.1193 -2.5,2.5c0,1.3807 1.1193,2.5 2.5,2.5l1.5,0l0,41.5c0,3.5899 2.9101,6.5 6.5,6.5l34,0c3.5898,0 6.5,-2.9101 6.5,-6.5l0,-41.5l1.5,0c1.3807,0 2.5,-1.1193 2.5,-2.5c0,-1.3807 -1.1193,-2.5 -2.5,-2.5l-11.6501,0l-5.3209,-6.6722c-0.4744,-0.5949 -1.1938,-0.94133 -1.9546,-0.94133l-12.1488,0zm-0.9256,17.61353c1.3807,0 2.5,1.1193 2.5,2.5l0,28c0,1.3807 -1.1193,2.5 -2.5,2.5c-1.3807,0 -2.5,-1.1193 -2.5,-2.5l0,-28c0,-1.3807 1.1193,-2.5 2.5,-2.5zm16.5,2.5c0,-1.3807 -1.1193,-2.5 -2.5,-2.5c-1.3807,0 -2.5,1.1193 -2.5,2.5l0,28c0,1.3807 1.1193,2.5 2.5,2.5c1.3807,0 2.5,-1.1193 2.5,-2.5l0,-28zm-2.5464,-12.5014l-2.0832,-2.6121l-9.7408,0l-2.0832,2.6121l13.9072,0z" fill="#C2CCDE" id="svg_1"/>
  <path fill="#ff0000" d="m7.3383,39.99994l0,0c0,-18.08535 14.62316,-32.74651 32.66167,-32.74651l0,0c8.66253,0 16.97025,3.45008 23.09532,9.59126c6.12531,6.14119 9.56642,14.47044 9.56642,23.15524l0,0c0,18.08556 -14.62305,32.74663 -32.66173,32.74663l0,0c-18.03851,0 -32.66167,-14.66106 -32.66167,-32.74663c0,0 0,0 0,0l-0.00001,0zm52.74121,14.64916l0,0c7.19102,-9.90834 6.12209,-23.58948 -2.52015,-32.25407c-8.64225,-8.66466 -22.28793,-9.73637 -32.17033,-2.52658l34.69047,34.78065l0.00001,0zm-40.15889,-29.29801c-7.19107,9.90828 -6.12217,23.58943 2.52002,32.2539c8.64217,8.66471 22.28785,9.73641 32.17025,2.5267l-34.69028,-34.78059l0,0l0.00001,-0.00001z" id="svg_3"/>
 </g>

</svg>